<svg xmlns="http://www.w3.org/2000/svg" xmlns:xlink="http://www.w3.org/1999/xlink" width="1080" zoomAndPan="magnify" viewBox="0 0 810 809.999993" height="1080" preserveAspectRatio="xMidYMid meet" version="1.2"><g id="edf048cd77"><path style=" stroke:none;fill-rule:nonzero;fill:#000000;fill-opacity:1;" d="M 776.304688 403.148438 C 776.304688 404.609375 776.261719 406.0625 776.179688 407.515625 C 776.097656 408.96875 775.972656 410.40625 775.808594 411.839844 C 775.644531 413.269531 775.4375 414.683594 775.191406 416.078125 C 774.945312 417.476562 774.660156 418.847656 774.339844 420.195312 C 774.015625 421.542969 773.652344 422.859375 773.253906 424.144531 C 772.855469 425.433594 772.421875 426.683594 771.953125 427.894531 C 771.480469 429.109375 770.980469 430.277344 770.441406 431.40625 C 769.90625 432.535156 769.339844 433.613281 768.742188 434.644531 C 768.144531 435.675781 767.515625 436.65625 766.863281 437.582031 C 766.210938 438.507812 765.53125 439.375 764.828125 440.183594 C 764.125 440.996094 763.398438 441.742188 762.652344 442.429688 C 761.90625 443.121094 761.144531 443.742188 760.363281 444.300781 C 759.582031 444.859375 758.785156 445.351562 757.976562 445.773438 C 757.167969 446.195312 756.347656 446.550781 755.519531 446.835938 C 754.691406 447.121094 753.855469 447.332031 753.011719 447.476562 C 752.171875 447.621094 751.328125 447.691406 750.480469 447.691406 C 749.636719 447.691406 748.792969 447.621094 747.949219 447.476562 C 747.109375 447.332031 746.273438 447.121094 745.445312 446.835938 C 744.613281 446.550781 743.792969 446.195312 742.984375 445.773438 C 742.175781 445.351562 741.378906 444.859375 740.597656 444.300781 C 739.816406 443.742188 739.054688 443.121094 738.308594 442.429688 C 737.5625 441.742188 736.839844 440.996094 736.136719 440.183594 C 735.429688 439.375 734.753906 438.507812 734.097656 437.582031 C 733.445312 436.65625 732.820312 435.675781 732.222656 434.644531 C 731.625 433.613281 731.054688 432.535156 730.519531 431.40625 C 729.984375 430.277344 729.480469 429.109375 729.011719 427.894531 C 728.539062 426.683594 728.105469 425.433594 727.707031 424.144531 C 727.308594 422.859375 726.949219 421.542969 726.625 420.195312 C 726.300781 418.847656 726.015625 417.476562 725.769531 416.078125 C 725.523438 414.683594 725.320312 413.269531 725.15625 411.839844 C 724.988281 410.40625 724.867188 408.96875 724.78125 407.515625 C 724.699219 406.0625 724.660156 404.609375 724.660156 403.148438 C 724.660156 401.691406 724.699219 400.234375 724.78125 398.785156 C 724.867188 397.332031 724.988281 395.890625 725.15625 394.460938 C 725.320312 393.027344 725.523438 391.617188 725.769531 390.21875 C 726.015625 388.824219 726.300781 387.453125 726.625 386.105469 C 726.949219 384.757812 727.308594 383.4375 727.707031 382.152344 C 728.105469 380.867188 728.539062 379.617188 729.011719 378.402344 C 729.480469 377.191406 729.984375 376.019531 730.519531 374.890625 C 731.054688 373.765625 731.625 372.683594 732.222656 371.652344 C 732.820312 370.621094 733.445312 369.644531 734.097656 368.71875 C 734.753906 367.792969 735.429688 366.925781 736.132812 366.113281 C 736.839844 365.304688 737.5625 364.554688 738.308594 363.867188 C 739.054688 363.179688 739.816406 362.554688 740.597656 361.996094 C 741.378906 361.441406 742.175781 360.949219 742.984375 360.523438 C 743.792969 360.101562 744.613281 359.746094 745.445312 359.464844 C 746.273438 359.179688 747.109375 358.964844 747.949219 358.820312 C 748.792969 358.679688 749.636719 358.605469 750.480469 358.605469 C 751.328125 358.605469 752.171875 358.679688 753.011719 358.820312 C 753.855469 358.964844 754.691406 359.179688 755.519531 359.464844 C 756.347656 359.746094 757.167969 360.101562 757.976562 360.523438 C 758.785156 360.949219 759.582031 361.441406 760.363281 361.996094 C 761.144531 362.554688 761.90625 363.179688 762.652344 363.867188 C 763.398438 364.554688 764.125 365.304688 764.828125 366.113281 C 765.53125 366.925781 766.210938 367.792969 766.863281 368.71875 C 767.515625 369.644531 768.144531 370.621094 768.742188 371.652344 C 769.339844 372.683594 769.90625 373.765625 770.441406 374.890625 C 770.980469 376.019531 771.480469 377.191406 771.953125 378.402344 C 772.421875 379.617188 772.855469 380.867188 773.253906 382.152344 C 773.652344 383.4375 774.015625 384.757812 774.339844 386.105469 C 774.660156 387.453125 774.945312 388.824219 775.191406 390.21875 C 775.4375 391.617188 775.644531 393.027344 775.808594 394.460938 C 775.972656 395.890625 776.097656 397.332031 776.179688 398.785156 C 776.261719 400.234375 776.304688 401.691406 776.304688 403.148438 Z M 776.304688 403.148438 "/><path style=" stroke:none;fill-rule:nonzero;fill:#000000;fill-opacity:1;" d="M 677.597656 403.148438 C 677.597656 382.496094 687.300781 365.75 699.28125 365.75 L 726.359375 361.976562 C 719.742188 349.042969 710.070312 340.867188 699.28125 340.867188 L 674.472656 340.867188 C 663.140625 340.867188 653.03125 349.875 646.414062 363.960938 C 575.214844 349.15625 565.710938 279.121094 478.457031 278.605469 L 478.457031 278.585938 L 105.914062 278.585938 C 66.03125 278.585938 33.695312 334.355469 33.695312 403.148438 C 33.695312 471.941406 66.03125 527.710938 105.914062 527.710938 L 478.457031 527.710938 L 478.457031 527.695312 C 565.703125 527.175781 575.214844 457.144531 646.414062 442.335938 C 653.03125 456.421875 663.140625 465.429688 674.472656 465.429688 L 699.28125 465.429688 C 710.070312 465.429688 719.742188 457.257812 726.359375 444.320312 L 699.28125 440.546875 C 687.308594 440.546875 677.597656 423.804688 677.597656 403.148438 Z M 641.480469 426.378906 C 641.480469 426.378906 595.195312 439.082031 576.378906 459.453125 C 557.554688 479.824219 514.867188 504.699219 492.011719 507.386719 C 469.152344 510.078125 317.105469 512.765625 317.105469 512.765625 L 93.367188 512.765625 C 93.367188 512.765625 40.9375 476.722656 47.660156 403.148438 C 54.382812 329.578125 90.6875 293.28125 90.6875 293.28125 L 488.65625 293.28125 C 488.65625 293.28125 524.960938 296.433594 549.15625 319.054688 C 573.351562 341.679688 594.847656 360.503906 609.636719 367.484375 C 627.371094 375.851562 641.664062 376.664062 641.664062 376.664062 C 641.664062 376.664062 638.71875 390.609375 638.71875 403.148438 C 638.71875 415.6875 641.488281 426.378906 641.488281 426.378906 Z M 641.480469 426.378906 "/><path style=" stroke:none;fill-rule:nonzero;fill:#961917;fill-opacity:1;" d="M 405.242188 428.625 C 405.242188 428.625 396.105469 426.273438 388.070312 426.273438 L 368.160156 426.273438 L 368.160156 434.277344 L 363.550781 434.277344 L 363.550781 426.273438 C 363.550781 426.273438 353.257812 425.15625 343.148438 426.273438 L 321.886719 428.625 C 332.941406 417.542969 337.511719 400.0625 335.511719 385.660156 C 332.878906 397.640625 323.382812 413.847656 314.035156 423.164062 C 314.035156 423.164062 306.804688 419.535156 295.457031 418.359375 C 284.097656 417.1875 270.855469 418.359375 270.855469 418.359375 L 270.855469 434.269531 L 266.246094 434.269531 L 266.246094 418.359375 C 266.246094 418.359375 251.292969 417.195312 241.402344 418.359375 C 231.515625 419.527344 210.933594 421.964844 210.933594 421.964844 C 220.554688 412.351562 226.621094 397.917969 229.132812 385.515625 C 231.765625 372.5 232.089844 362.171875 226.742188 347.277344 C 223.910156 339.378906 221.1875 330.460938 214.886719 324.15625 L 266.246094 324.15625 L 266.246094 319.054688 L 270.855469 319.054688 L 270.855469 324.15625 L 317.585938 324.15625 C 327.257812 333.828125 333.324219 345.738281 335.816406 358.203125 L 363.558594 358.203125 L 363.558594 353.382812 L 368.167969 353.382812 L 368.167969 358.203125 L 405.25 358.203125 C 410.621094 363.582031 414.921875 369.777344 416.753906 376.664062 C 419.742188 387.914062 417.71875 403.148438 413.464844 415.300781 C 411.980469 419.535156 408.582031 425.292969 405.242188 428.625 Z M 405.242188 428.625 "/><path style=" stroke:none;fill-rule:nonzero;fill:#000000;fill-opacity:1;" d="M 369.042969 435.152344 L 362.667969 435.152344 L 362.667969 427.078125 C 360.085938 426.851562 351.539062 426.234375 343.238281 427.148438 L 319.480469 429.78125 L 321.253906 428.007812 C 330.292969 418.953125 335.550781 404.40625 335.046875 390.601562 C 331.363281 401.804688 323.171875 415.300781 314.660156 423.796875 L 314.214844 424.242188 L 313.648438 423.957031 C 313.574219 423.925781 306.40625 420.386719 295.367188 419.242188 C 285.808594 418.253906 274.769531 418.953125 271.738281 419.179688 L 271.738281 435.152344 L 265.363281 435.152344 L 265.363281 419.1875 C 262.125 418.960938 249.894531 418.253906 241.507812 419.242188 L 208.511719 423.15625 L 210.308594 421.359375 C 218.691406 412.984375 225.40625 399.527344 228.265625 385.363281 C 230.824219 372.710938 231.253906 362.480469 225.910156 347.589844 L 225.089844 345.289062 C 222.5 337.945312 219.816406 330.355469 214.261719 324.796875 L 212.753906 323.292969 L 265.363281 323.292969 L 265.363281 318.1875 L 271.738281 318.1875 L 271.738281 323.292969 L 317.949219 323.292969 L 318.207031 323.550781 C 327.507812 332.847656 333.832031 344.511719 336.539062 357.335938 L 362.675781 357.335938 L 362.675781 352.507812 L 369.050781 352.507812 L 369.050781 357.335938 L 405.617188 357.335938 L 405.875 357.59375 C 411.949219 363.679688 415.894531 370.019531 417.605469 376.445312 C 420.910156 388.894531 418.066406 404.835938 414.296875 415.597656 C 412.671875 420.257812 409.121094 426 405.875 429.253906 L 405.519531 429.613281 L 405.03125 429.480469 C 404.941406 429.457031 395.910156 427.15625 388.078125 427.15625 L 369.050781 427.15625 L 369.050781 435.152344 Z M 364.433594 433.386719 L 367.277344 433.386719 L 367.277344 425.390625 L 388.070312 425.390625 C 395.152344 425.390625 402.925781 427.15625 404.96875 427.652344 C 407.917969 424.542969 411.15625 419.210938 412.628906 415.015625 C 416.308594 404.492188 419.101562 388.957031 415.894531 376.898438 C 414.289062 370.863281 410.582031 364.875 404.878906 359.09375 L 367.285156 359.09375 L 367.285156 354.265625 L 364.441406 354.265625 L 364.441406 359.09375 L 335.097656 359.09375 L 334.960938 358.378906 C 332.433594 345.746094 326.300781 334.226562 317.21875 325.039062 L 269.980469 325.039062 L 269.980469 319.9375 L 267.136719 319.9375 L 267.136719 325.039062 L 216.917969 325.039062 C 221.835938 330.726562 224.441406 338.105469 226.765625 344.683594 L 227.585938 346.976562 C 233.070312 362.253906 232.632812 372.742188 230.007812 385.695312 C 227.269531 399.230469 221.082031 412.140625 213.265625 420.808594 L 241.316406 417.484375 C 251.171875 416.3125 266.175781 417.46875 266.328125 417.484375 L 267.136719 417.550781 L 267.136719 433.386719 L 269.980469 433.386719 L 269.980469 417.558594 L 270.78125 417.484375 C 270.914062 417.476562 284.246094 416.320312 295.554688 417.484375 C 305.242188 418.492188 311.90625 421.21875 313.859375 422.101562 C 323.101562 412.675781 332.179688 396.710938 334.652344 385.476562 L 335.710938 380.671875 L 336.394531 385.546875 C 338.449219 400.355469 333.574219 416.871094 324.179688 427.488281 L 343.058594 425.398438 C 353.144531 424.289062 363.550781 425.390625 363.65625 425.398438 L 364.441406 425.480469 L 364.441406 433.386719 Z M 364.433594 433.386719 "/><path style=" stroke:none;fill-rule:nonzero;fill:#000000;fill-opacity:1;" d="M 334.488281 383.515625 C 333.265625 376.589844 329.296875 370.125 324.710938 362.632812 C 323.917969 361.335938 323.109375 360.015625 322.289062 358.664062 L 321.488281 357.328125 L 335.808594 357.328125 L 335.808594 359.09375 L 324.617188 359.09375 C 325.148438 359.976562 325.683594 360.851562 326.21875 361.71875 C 330.902344 369.355469 334.953125 375.957031 336.230469 383.214844 L 334.496094 383.523438 Z M 334.488281 383.515625 "/><path style=" stroke:none;fill-rule:nonzero;fill:#000000;fill-opacity:1;" d="M 480.199219 453.386719 C 478.878906 453.003906 477.558594 452.65625 476.238281 452.308594 L 476.613281 452.347656 C 476.3125 452.269531 475.933594 452.1875 475.503906 452.105469 C 472.910156 451.433594 470.320312 450.824219 467.71875 450.234375 C 462.875 448.46875 457.835938 444.945312 456.824219 437.175781 C 457.796875 434.035156 458.296875 430.714844 458.144531 427.238281 C 458.046875 423.285156 457.105469 419.285156 455.253906 415.808594 C 452.328125 410.308594 453.679688 403.949219 457.617188 399.035156 C 458.078125 398.582031 457.503906 397.8125 456.9375 398.101562 C 453.65625 399.789062 450.820312 402.460938 448.949219 406.058594 C 447.0625 409.621094 446.511719 414.164062 447.402344 418.265625 C 448.101562 421.105469 448.949219 424.015625 448.503906 426.964844 C 448.179688 429.585938 447.210938 431.992188 445.9375 434.277344 L 160.160156 434.277344 C 153.699219 423.164062 163.523438 412.625 179.171875 412.625 L 179.171875 399.902344 C 139.296875 414.109375 148.367188 443.421875 165.644531 456.21875 C 171.695312 463.015625 180.484375 467.316406 190.292969 467.316406 L 218.171875 467.316406 L 199.519531 448.664062 C 199.042969 448.183594 199.042969 447.421875 199.519531 446.945312 C 199.996094 446.46875 200.757812 446.46875 201.238281 446.945312 L 221.601562 467.308594 L 251.109375 467.308594 L 232.453125 448.65625 C 231.976562 448.175781 231.976562 447.414062 232.453125 446.9375 C 232.933594 446.460938 233.691406 446.460938 234.171875 446.9375 L 254.535156 467.300781 L 284.042969 467.300781 L 265.386719 448.648438 C 264.910156 448.167969 264.910156 447.40625 265.386719 446.929688 C 265.867188 446.453125 266.628906 446.453125 267.105469 446.929688 L 287.46875 467.292969 L 316.976562 467.292969 L 298.324219 448.640625 C 297.84375 448.160156 297.84375 447.398438 298.324219 446.921875 C 298.800781 446.445312 299.5625 446.445312 300.039062 446.921875 L 320.402344 467.285156 L 349.910156 467.285156 L 331.257812 448.628906 C 330.78125 448.152344 330.78125 447.390625 331.257812 446.914062 C 331.734375 446.4375 332.496094 446.433594 332.976562 446.914062 L 353.339844 467.277344 L 382.847656 467.277344 L 364.191406 448.621094 C 363.714844 448.144531 363.714844 447.382812 364.191406 446.90625 C 364.671875 446.425781 365.429688 446.425781 365.910156 446.90625 L 386.273438 467.269531 L 415.78125 467.269531 L 397.125 448.613281 C 396.648438 448.136719 396.648438 447.375 397.125 446.898438 C 397.605469 446.417969 398.367188 446.417969 398.84375 446.898438 L 419.207031 467.261719 L 420.367188 467.261719 C 422.820312 467.261719 425.203125 466.976562 427.5 466.46875 C 432.515625 466.46875 437.449219 464.433594 442.355469 463.679688 C 455.074219 461.769531 467.675781 459.0625 480.160156 455.628906 C 481.285156 455.34375 481.285156 453.621094 480.160156 453.328125 Z M 480.199219 453.386719 "/><path style=" stroke:none;fill-rule:nonzero;fill:#193873;fill-opacity:1;" d="M 484.234375 450.574219 C 485.164062 451.628906 485.75 453.027344 485.742188 454.550781 C 485.742188 457.257812 483.917969 459.597656 481.335938 460.246094 C 468.664062 463.738281 455.761719 466.484375 443.085938 468.386719 C 441.441406 468.636719 439.714844 469.074219 437.894531 469.535156 C 434.765625 470.324219 431.535156 471.140625 428.0625 471.222656 C 426.628906 471.519531 425.203125 471.714844 423.769531 471.84375 L 424.074219 472.152344 C 427.039062 471.886719 432.410156 476.382812 432.46875 476.4375 L 434.167969 478.140625 L 423.777344 478.140625 C 422.933594 476.65625 422.253906 475.070312 422.359375 473.871094 L 420.503906 472.015625 C 420.503906 472.015625 420.429688 472.015625 420.398438 472.015625 L 391.003906 472.015625 L 391.132812 472.144531 C 394.097656 471.878906 399.46875 476.375 399.523438 476.429688 L 401.226562 478.128906 L 390.832031 478.128906 C 389.992188 476.648438 389.308594 475.0625 389.414062 473.863281 L 387.570312 472.015625 L 358.058594 472.015625 L 358.191406 472.144531 C 361.15625 471.878906 366.523438 476.371094 366.582031 476.429688 L 368.28125 478.128906 L 357.890625 478.128906 C 357.046875 476.648438 356.367188 475.0625 356.472656 473.863281 L 354.625 472.015625 L 325.117188 472.015625 L 325.246094 472.144531 C 328.210938 471.878906 333.582031 476.371094 333.640625 476.429688 L 335.339844 478.128906 L 324.949219 478.128906 C 324.105469 476.648438 323.425781 475.0625 323.53125 473.863281 L 321.683594 472.015625 L 292.175781 472.015625 L 292.304688 472.144531 C 295.269531 471.878906 300.640625 476.371094 300.695312 476.429688 L 302.398438 478.128906 L 292.003906 478.128906 C 291.164062 476.648438 290.480469 475.0625 290.585938 473.863281 L 288.742188 472.015625 L 259.234375 472.015625 L 259.363281 472.144531 C 262.328125 471.878906 267.695312 476.371094 267.753906 476.429688 L 269.453125 478.128906 L 259.0625 478.128906 C 258.21875 476.648438 257.539062 475.058594 257.644531 473.863281 L 255.796875 472.015625 L 226.289062 472.015625 L 226.417969 472.144531 C 229.382812 471.878906 234.753906 476.371094 234.8125 476.429688 L 236.511719 478.128906 L 226.121094 478.128906 C 225.277344 476.648438 224.597656 475.058594 224.703125 473.863281 L 222.855469 472.015625 L 190.269531 472.015625 C 179.707031 472.015625 169.582031 467.535156 162.429688 459.703125 C 158.914062 457.039062 155.894531 453.9375 153.4375 450.566406 L 61.460938 450.566406 C 73.441406 489.476562 102.757812 505.695312 102.757812 505.695312 L 317.074219 505.695312 C 317.074219 505.695312 469.113281 503.011719 491.984375 500.308594 C 513.773438 497.742188 547.1875 470.734375 566.546875 450.566406 L 484.203125 450.566406 Z M 484.234375 450.574219 "/><path style=" stroke:none;fill-rule:nonzero;fill:#000000;fill-opacity:1;" d="M 270.847656 418.367188 L 270.847656 434.269531 L 266.238281 434.269531 L 266.238281 418.367188 "/><path style=" stroke:none;fill-rule:nonzero;fill:#000000;fill-opacity:1;" d="M 368.160156 426.273438 L 368.160156 434.269531 L 363.550781 434.269531 L 363.550781 426.273438 "/><path style=" stroke:none;fill-rule:nonzero;fill:#000000;fill-opacity:1;" d="M 363.550781 358.203125 L 363.550781 353.382812 L 368.160156 353.382812 L 368.160156 358.203125 "/><path style=" stroke:none;fill-rule:nonzero;fill:#000000;fill-opacity:1;" d="M 266.238281 324.15625 L 266.238281 319.054688 L 270.847656 319.054688 L 270.847656 324.15625 "/></g></svg>